<?xml version="1.0" encoding="UTF-8" standalone="no"?>
<!-- Created with Inkscape (http://www.inkscape.org/) -->

<svg
   width="581.86127"
   height="164.69086"
   viewBox="0 0 581.86128 164.69086"
   version="1.1"
   id="svg1"
   inkscape:version="1.3.2 (091e20e, 2023-11-25, custom)"
   sodipodi:docname="NavbarSlime.svg"
   xmlns:inkscape="http://www.inkscape.org/namespaces/inkscape"
   xmlns:sodipodi="http://sodipodi.sourceforge.net/DTD/sodipodi-0.dtd"
   xmlns="http://www.w3.org/2000/svg"
   xmlns:svg="http://www.w3.org/2000/svg">
  <sodipodi:namedview
     id="namedview1"
     pagecolor="#505050"
     bordercolor="#ffffff"
     borderopacity="1"
     inkscape:showpageshadow="false"
     inkscape:pageopacity="0"
     inkscape:pagecheckerboard="1"
     inkscape:deskcolor="#505050"
     inkscape:document-units="px"
     inkscape:zoom="0.95169366"
     inkscape:cx="218.03234"
     inkscape:cy="54.114052"
     inkscape:window-width="1366"
     inkscape:window-height="697"
     inkscape:window-x="-8"
     inkscape:window-y="-8"
     inkscape:window-maximized="1"
     inkscape:current-layer="layer1"
     showborder="true"
     borderlayer="true"
     labelstyle="default"
     inkscape:clip-to-page="false"
     showgrid="true" />
  <defs
     id="defs1">
    <inkscape:path-effect
       effect="spiro"
       id="path-effect8"
       is_visible="true"
       lpeversion="1" />
    <inkscape:path-effect
       effect="spiro"
       id="path-effect6"
       is_visible="true"
       lpeversion="1" />
    <inkscape:path-effect
       effect="spiro"
       id="path-effect5"
       is_visible="true"
       lpeversion="1" />
    <inkscape:path-effect
       effect="bspline"
       id="path-effect4"
       is_visible="true"
       lpeversion="1.3"
       weight="33.333333"
       steps="2"
       helper_size="0"
       apply_no_weight="true"
       apply_with_weight="true"
       only_selected="false"
       uniform="false" />
    <inkscape:path-effect
       effect="bspline"
       id="path-effect2"
       is_visible="true"
       lpeversion="1.3"
       weight="33.333333"
       steps="2"
       helper_size="0"
       apply_no_weight="true"
       apply_with_weight="true"
       only_selected="false"
       uniform="false" />
    <inkscape:path-effect
       effect="spiro"
       id="path-effect1"
       is_visible="true"
       lpeversion="1" />
  </defs>
  <g
     inkscape:label="Capa 1"
     inkscape:groupmode="layer"
     id="layer1"
     transform="translate(-76.55742,-15.878921)">
    <path
       style="fill:#badfeb;fill-opacity:1;stroke:#bfbfbf;stroke-width:0;stroke-linejoin:bevel;stroke-opacity:0"
       d="m 196.36893,174.66778 c 86.2753,1.05859 241.88841,-1.05859 406.50129,-1.58788 164.61289,-0.52929 338.21861,0.52929 501.77268,2.1172 163.5541,1.58791 317.047,3.70505 434.0222,4.76365 116.9753,1.05859 197.4268,1.05859 242.9464,-2.64657 45.5196,-3.70516 56.1053,-11.11516 62.9862,-28.05289 6.8808,-16.93774 10.0565,-43.40203 9.5272,-65.103339 -0.5293,-21.701314 -4.7636,-38.638461 -49.7547,-49.224433 -44.991,-10.585972 -130.7353,-14.820259 -252.475,-15.87883 -121.7397,-1.058572 -279.4669,1.058572 -438.7867,0.529244 -159.31978,-0.529328 -320.22264,-3.705043 -467.89765,-3.705011 -147.67501,3.1e-5 -282.11359,3.175746 -366.80135,4.234328 -84.68775,1.058582 -119.62061,1.1e-5 -144.49768,5.293092 -24.87708,5.29308 -39.697077,16.937364 -47.636532,32.816454 -7.939456,15.87909 -8.998027,35.991947 -9.527324,54.517485 -0.529296,18.52554 -0.529296,35.46269 7.939613,46.04866 8.46891,10.58596 25.406053,14.82025 111.681353,15.87884 z"
       id="path1"
       inkscape:path-effect="#path-effect2"
       inkscape:original-d="m 127.03111,177.84356 c 155.61312,-2.11719 311.22623,-4.23437 466.83934,-6.35156 173.61266,1.05862 347.21838,2.11719 520.82755,3.17578 153.499,2.11723 306.9919,4.23437 460.4878,6.35156 80.4546,0 160.9061,0 241.3591,0 10.5862,-7.4103 21.1719,-14.8203 31.7578,-22.23045 3.1758,-26.46534 6.3515,-52.92963 9.5273,-79.394444 -4.2344,-16.937821 -8.4687,-33.874964 -12.7031,-50.812446 -85.7477,-4.234455 -171.492,-8.46874 -257.238,-12.703111 -157.7334,2.117228 -315.4606,4.234371 -473.1909,6.351556 C 953.78872,19.054603 792.88586,15.878889 631.97979,12.703111 497.53584,15.878953 363.09726,19.054667 228.656,22.230445 193.72175,21.171831 158.78889,20.11326 123.85534,19.054667 109.03474,30.699419 94.214742,42.343704 79.394446,53.988223 78.335832,74.101885 77.27726,94.214742 76.218668,114.328 c 0,16.93782 0,33.87497 0,50.81245 16.93782,4.23445 33.874962,8.46874 50.812442,12.70311 z"
       inkscape:label="fondo"
       transform="matrix(0.32732524,0,0,1,51.498244,0)" />
    <path
       style="fill:#5f9fc0;fill-opacity:1;stroke:#bfbfbf;stroke-width:0;stroke-linejoin:bevel;stroke-opacity:0"
       d="m 196.36893,174.66778 c 86.2753,1.05859 241.88841,-1.05859 406.50129,-1.58788 164.61289,-0.52929 338.21861,0.52929 501.77268,2.1172 163.5541,1.58791 317.047,3.70505 434.0222,4.76365 116.9753,1.05859 197.4268,1.05859 242.9464,-2.64657 45.5196,-3.70516 56.1053,-11.11516 62.9862,-28.05289 6.8808,-16.93774 10.0565,-43.40203 9.5272,-65.103339 -0.5293,-21.701314 -4.7636,-38.638461 -49.7547,-49.224433 -44.991,-10.585972 -130.7353,-14.820259 -252.475,-15.87883 -121.7397,-1.058572 -279.4669,1.058572 -438.7867,0.529244 -159.31978,-0.529328 -320.22264,-3.705043 -467.89765,-3.705011 -147.67501,3.1e-5 -282.11359,3.175746 -366.80135,4.234328 -84.68775,1.058582 -119.62061,1.1e-5 -144.49768,5.293092 -24.87708,5.29308 -39.697077,16.937364 -47.636532,32.816454 -7.939456,15.87909 -8.998027,35.991947 -9.527324,54.517485 -0.529296,18.52554 -0.529296,35.46269 7.939613,46.04866 8.46891,10.58596 25.406053,14.82025 111.681353,15.87884 z"
       id="path2"
       inkscape:path-effect="#path-effect4"
       inkscape:original-d="m 127.03111,177.84356 c 155.61312,-2.11719 311.22623,-4.23437 466.83934,-6.35156 173.61266,1.05862 347.21838,2.11719 520.82755,3.17578 153.499,2.11723 306.9919,4.23437 460.4878,6.35156 80.4546,0 160.9061,0 241.3591,0 10.5862,-7.4103 21.1719,-14.8203 31.7578,-22.23045 3.1758,-26.46534 6.3515,-52.92963 9.5273,-79.394444 -4.2344,-16.937821 -8.4687,-33.874964 -12.7031,-50.812446 -85.7477,-4.234455 -171.492,-8.46874 -257.238,-12.703111 -157.7334,2.117228 -315.4606,4.234371 -473.1909,6.351556 C 953.78872,19.054603 792.88586,15.878889 631.97979,12.703111 497.53584,15.878953 363.09726,19.054667 228.656,22.230445 193.72175,21.171831 158.78889,20.11326 123.85534,19.054667 109.03474,30.699419 94.214742,42.343704 79.394446,53.988223 78.335832,74.101885 77.27726,94.214742 76.218668,114.328 c 0,16.93782 0,33.87497 0,50.81245 16.93782,4.23445 33.874962,8.46874 50.812442,12.70311 z"
       transform="matrix(0.31367352,0,0,0.81713702,67.880623,18.622983)"
       inkscape:label="relleno" />
    <path
       style="display:none;opacity:1;fill:#dceaf0;fill-opacity:1;stroke:#bfbfbf;stroke-width:0;stroke-linejoin:bevel;stroke-opacity:0"
       d="m 157.19298,105.54386 c -1.65869,-1.16727 -3.79092,-1.57477 -5.79955,-1.29341 -2.00863,0.28137 -3.89309,1.21699 -5.46715,2.49609 -3.14813,2.55819 -5.00878,6.33745 -6.69821,10.02539 -1.17374,2.56221 -2.32679,5.19736 -2.59685,8.00265 -0.13502,1.40264 -0.0421,2.83684 0.37422,4.18305 0.41634,1.34622 1.16529,2.60211 2.22263,3.5336 1.45125,1.27852 3.43148,1.88528 5.36451,1.82089 1.93303,-0.0644 3.81417,-0.76734 5.42765,-1.83384 3.22696,-2.133 5.32027,-5.57373 7.17275,-8.96951 1.57625,-2.88942 3.08302,-5.91707 3.41828,-9.19135 0.16762,-1.63715 0.0306,-3.31894 -0.52596,-4.86768 -0.55656,-1.54874 -1.54647,-2.95876 -2.89232,-3.90588 z"
       id="path5"
       inkscape:path-effect="#path-effect6"
       inkscape:original-d="m 157.19298,105.54386 c 0,-2.99415 -11.97661,9.73099 -17.96491,11.22807 -5.9883,1.49708 -0.74854,8.98246 0,15.7193 0.74854,6.73684 12.72515,-5.98831 17.96491,-8.98246 5.23977,-2.99415 0,-10.47953 0,-17.96491 z"
       inkscape:label="reflejo2"
       transform="matrix(0.51568986,-0.46256991,0.44208027,0.49284725,0.41775285,131.52258)"
       inkscape:transform-center-x="-0.6260622"
       inkscape:transform-center-y="-0.63192933" />
    <path
       style="display:none;opacity:1;fill:#dae8f0;fill-opacity:1;stroke:#bfbfbf;stroke-width:0;stroke-linejoin:bevel;stroke-opacity:0"
       d="m 317.77917,45.707986 c -27.52871,0.926086 -55.06409,1.778901 -82.55974,3.414965 -29.24219,1.739988 -58.50623,4.376423 -87.2063,10.244893 -5.6473,1.154736 -11.29899,2.443117 -16.64089,4.608651 -5.3419,2.165534 -10.39695,5.256224 -14.21269,9.576586 -1.95579,2.214441 -3.58258,4.766046 -4.43275,7.595548 -0.85018,2.829502 -0.88295,5.954266 0.22972,8.691205 0.94963,2.335888 2.68815,4.297452 4.72841,5.779171 2.75756,2.002644 6.09499,3.177915 9.49397,3.426162 3.39898,0.248247 6.85068,-0.421893 9.94505,-1.850025 3.35167,-1.546879 6.23936,-3.934425 8.96891,-6.419595 2.72954,-2.48517 5.35678,-5.105926 8.36861,-7.240263 7.4716,-5.294764 16.74479,-7.234024 25.74357,-8.931444 10.10373,-1.905844 20.24527,-3.664605 30.472,-4.728413 16.74131,-1.74147 33.61188,-1.611647 50.4364,-2.101517 15.94535,-0.464271 31.86925,-1.486462 47.8095,-2.101517 19.62742,-0.757324 39.27411,-0.897178 58.9044,-1.576136 20.86621,-0.721706 41.72438,-2.052674 62.60197,-1.838828 2.60167,0.02665 5.26322,0.06842 7.72857,-0.763115 1.23268,-0.415768 2.4023,-1.053091 3.34651,-1.947969 0.94422,-0.894878 1.65467,-2.056311 1.91561,-3.330776 0.27004,-1.318941 0.0485,-2.716543 -0.52267,-3.93568 -0.57117,-1.219138 -1.47917,-2.264319 -2.54381,-3.088385 -2.12927,-1.648132 -4.8072,-2.398964 -7.4411,-2.958139 -7.92253,-1.681945 -16.06968,-1.953951 -24.16744,-2.101516 -30.32513,-0.552613 -60.65279,0.556385 -90.96581,1.576137 z"
       id="path8"
       inkscape:path-effect="#path-effect8"
       inkscape:original-d="m 317.77917,45.707986 c -22.06592,1.751264 -59.12225,5.036849 -82.55974,3.414965 -40.0154,-2.769083 -73.75603,7.166937 -87.2063,10.244893 -24.57591,5.623944 -22.62264,7.530434 -30.85358,14.185237 -8.23094,6.654802 -2.80202,11.032962 -4.20303,16.286753 -1.40101,5.253792 3.15227,3.852781 4.72841,5.779171 1.57614,1.92639 15.23599,0.175126 19.43902,1.576137 4.20303,1.401012 10.47122,-17.93078 17.33752,-13.659858 21.00706,13.066658 17.86289,-5.25379 25.74357,-8.931444 7.88069,-3.677658 20.31467,-3.502528 30.472,-4.728413 10.15733,-1.225885 33.44914,0 50.4364,-2.101517 16.98726,-2.101516 32.04813,-1.225885 47.8095,-2.101517 43.20651,-0.425982 16.32676,0.04209 58.9044,-1.576136 17.51264,-0.52538 42.57077,2.30644 62.60197,-1.838828 20.27915,-4.196581 10.53892,-2.364206 12.99069,-6.04186 2.45177,-3.677654 -7.00505,-6.654803 -10.50758,-9.982204 -3.50253,-3.327401 -16.28675,-1.401011 -24.16744,-2.101516 -7.88069,-0.700506 -66.79837,-0.175127 -90.96581,1.576137 z"
       transform="matrix(0.21319569,0,0,0.8474709,95.138564,13.53887)"
       sodipodi:nodetypes="cssssssssssssssssc" />
  </g>
</svg>
